Coordinates
version=1
nRows=21
nColumns=19
inDegrees=yes

Units are S.I. units (second, meters, Newtons, ...)
If the header above contains a line with 'inDegrees', this indicates whether rotational values are in degrees (yes) or radians (no).

endheader
time	pelvis_to_ground_rx	pelvis_to_ground_ry	pelvis_to_ground_rz	pelvis_to_ground_tx	pelvis_to_ground_ty	pelvis_to_ground_tz	left_hip_abduction	left_hip_rotation	left_hip_flexion	left_knee_flexion	left_ankle_flexion	left_subtalar_angle	right_hip_abduction	right_hip_rotation	right_hip_flexion	right_knee_flexion	right_ankle_flexion	right_subtalar_angle
      2.99000000	     98.01146017	      9.61956385	     -4.46190401	      1.50764483	     -0.71964496	      0.73424694	    -14.04999442	     -9.69275129	      5.62324545	    -26.27621665	      4.85267476	     -8.34652614	      0.86727131	    -11.47786042	     36.53001403	    -49.48459615	     -3.02406424	    -11.16236941
      3.00000000	     98.15360244	     10.24439374	     -4.45327816	      1.51685300	     -0.71944902	      0.73303052	    -14.11167444	     -9.64035817	      4.88600670	    -26.46233528	      5.30219074	     -7.96203045	      0.30815965	    -11.45927801	     37.11193917	    -46.95170438	     -3.44413717	    -10.19430081
      3.01000000	     98.30441122	     10.88750320	     -4.43492824	      1.52630517	     -0.71927282	      0.73161181	    -14.18825467	     -9.74167546	      4.09007609	    -26.65943953	      5.73107245	     -7.61828838	     -0.29724522	    -11.47808411	     37.46964652	    -44.22705380	     -3.75602074	     -9.29067952
      3.02000000	     98.46977217	     11.51760842	     -4.34548875	      1.53605534	     -0.71909250	      0.72998332	    -14.31181045	    -10.00344649	      3.15893832	    -26.86487240	      5.95529517	     -7.49874690	     -0.98247063	    -11.44108553	     37.52593475	    -41.37573961	     -4.02607777	     -8.80577919
      3.03000000	     98.60474798	     12.10747695	     -4.19864974	      1.54613817	     -0.71893083	      0.72816107	    -14.40994308	    -10.20890156	      2.20090353	    -27.18617317	      6.35099964	     -7.41514390	     -1.68617750	    -11.30118305	     37.30983692	    -38.46227342	     -4.60556284	     -7.99789784
      3.04000000	     98.67069122	     12.70633432	     -4.05988243	      1.55659607	     -0.71885101	      0.72619104	    -14.42174004	    -10.42112430	      1.32311879	    -27.69864853	      6.87779978	     -7.30119562	     -2.32332291	    -11.12761103	     36.90845849	    -35.56354802	     -5.21862428	     -6.99858006
      3.05000000	     98.74731666	     13.21610810	     -3.87904618	      1.56742612	     -0.71874805	      0.72407740	    -14.47643044	    -10.65438129	      0.40621702	    -28.30531793	      7.37411686	     -7.15486155	     -3.04576989	    -10.69534653	     36.28435544	    -32.81170246	     -5.65496565	     -6.11823100
      3.06000000	     98.78093470	     13.68307330	     -3.59145047	      1.57865116	     -0.71866610	      0.72184502	    -14.51482731	    -10.86037534	     -0.56021826	    -29.08217774	      7.53721863	     -7.12441543	     -3.76022373	    -10.11413910	     35.42343135	    -30.31363917	     -5.83097946	     -5.79522265
      3.07000000	     98.73798199	     14.10252508	     -3.29357643	      1.59022364	     -0.71861924	      0.71956901	    -14.47392559	    -10.99402549	     -1.40389708	    -30.11498414	      7.73413948	     -7.13270462	     -4.38174005	     -9.40224311	     34.47626813	    -28.14291746	     -6.06559634	     -5.46842321
      3.08000000	     98.59768301	     14.47252142	     -2.98335646	      1.60211184	     -0.71861643	      0.71730436	    -14.31445939	    -10.98698966	     -2.08154565	    -31.43609723	      7.91498266	     -7.14176851	     -4.85859947	     -8.59123664	     33.49087813	    -26.37722439	     -6.25119573	     -5.22097155
      3.09000000	     98.37150966	     14.76686716	     -2.71650057	      1.61424165	     -0.71865933	      0.71510608	    -14.03306927	    -10.80774041	     -2.50141134	    -33.07216180	      7.97454484	     -7.13468536	     -5.18433739	     -7.65270784	     32.56280681	    -25.07002309	     -6.27520481	     -5.13691047
      3.10000000	     98.02009122	     14.98484519	     -2.46095224	      1.62656654	     -0.71875843	      0.71301229	    -13.55913684	    -10.34242282	     -2.63761809	    -35.05242434	      7.90426716	     -7.09837932	     -5.29319255	     -6.63233680	     31.69565376	    -24.23400743	     -6.14357347	     -5.21758056
      3.11000000	     97.53242612	     15.12842415	     -2.24554143	      1.63902688	     -0.71894454	      0.71106222	    -12.86424747	     -9.58366916	     -2.43921476	    -37.37637421	      7.67866140	     -7.02915004	     -5.14810042	     -5.57344506	     30.94431722	    -23.86342296	     -5.86195193	     -5.44439527
      3.12000000	     96.91678724	     15.21425231	     -2.09520015	      1.65157213	     -0.71924605	      0.70934679	    -11.95787122	     -8.56684984	     -1.89335199	    -40.00044086	      6.91224639	     -6.44804054	     -4.77438028	     -4.45363226	     30.28425953	    -23.83501325	     -4.96905103	     -6.40932419
      3.13000000	     96.15468052	     15.23801189	     -1.95255065	      1.66413966	     -0.71964855	      0.70778962	    -10.82152842	     -7.22498955	     -1.02721135	    -42.94862900	      6.14180443	     -5.98738921	     -4.08585136	     -3.48605603	     29.73480710	    -24.18856556	     -4.35009548	     -7.19080681
      3.14000000	     95.28977567	     15.16151776	     -1.84999359	      1.67666467	     -0.72013893	      0.70644954	     -9.53536080	     -5.60787767	      0.13040312	    -46.12106844	      5.18559509	     -5.60646449	     -3.17622293	     -2.54939887	     29.27354319	    -24.79324527	     -3.65159704	     -7.88542017
      3.15000000	     94.26577622	     15.06648344	     -1.74829905	      1.68913805	     -0.72077639	      0.70539223	     -8.08417738	     -3.88747967	      1.51021697	    -49.47442561	      3.94181696	     -5.20856040	     -1.98308527	     -1.77680956	     28.80479165	    -25.47825300	     -2.83608514	     -8.59143432
      3.16000000	     93.16559128	     14.88429542	     -1.67334726	      1.70146562	     -0.72148440	      0.70460012	     -6.57898121	     -2.01150556	      3.09620408	    -52.93766028	      2.57496152	     -4.92039440	     -0.62091655	     -1.11480771	     28.34983150	    -26.19599489	     -2.03092234	     -9.17458503
      3.17000000	     92.00126921	     14.63899610	     -1.62724610	      1.71361801	     -0.72226439	      0.70411317	     -5.07177209	     -0.08466925	      4.84703611	    -56.44634448	      1.10273587	     -4.76022375	      0.88237274	     -0.61187187	     27.87022940	    -26.83195285	     -1.23652593	     -9.63396568
      3.18000000	     90.80681985	     14.33262525	     -1.62093793	      1.72554841	     -0.72308984	      0.70395774	     -3.63026277	      1.83129238	      6.73512060	    -59.93447803	     -0.40321004	     -4.77526694	      2.46428173	     -0.26331869	     27.34770613	    -27.30598218	     -0.48205582	     -9.94244303
      3.19000000	     89.61172953	     13.97072523	     -1.67262173	      1.73723463	     -0.72394107	      0.70415518	     -2.31121325	      3.68032104	      8.74703226	    -63.34235738	     -1.85855122	     -4.99913216	      4.07124624	     -0.05876435	     26.77729773	    -27.55809231	      0.21370785	    -10.08075207
